<?xml version="1.0" encoding="utf-8"?>
<!-- Generator: Adobe Illustrator 19.0.0, SVG Export Plug-In . SVG Version: 6.00 Build 0)  -->
<svg version="1.1" id="Layer_1" xmlns="http://www.w3.org/2000/svg" xmlns:xlink="http://www.w3.org/1999/xlink" x="0px" y="0px"
	 viewBox="-7.5 1 127.5 268.8" style="enable-background:new -7.5 1 127.5 268.8;" xml:space="preserve">
<style type="text/css">
	.st0{fill:#4697E0;}
	.st1{fill:#6AB1FF;}
	.st2{fill:#EFC356;}
	.st3{fill:#FFFFFF;}
	.st4{fill:#FFE8D4;}
	.st5{fill:#1C1C1C;}
	.st6{fill:#EA9F96;}
	.st7{fill:#EACC75;}
	.st8{fill:#CE3F3C;}
	.st9{fill:#E0E0E0;}
</style>
<g>
	<ellipse class="st0" cx="16.5" cy="198.8" rx="15.5" ry="42.1"/>
	<ellipse class="st0" cx="105" cy="189.2" rx="11.4" ry="32"/>
	<path class="st1" d="M106.6,269.8H90.9H28.3c-10.8,0-16.7-8.9-16.7-21.9l0.4-91.3h94.6V269.8z"/>
	<circle class="st2" cx="64.3" cy="103.2" r="47.7"/>
	<polygon class="st3" points="107.4,157.2 73.9,144.1 64,161.2 58.3,170.9 52.6,161.2 42.7,144.1 9.2,157.2 39,165.5 58.3,197.9 
		76.7,165.8 	"/>
	<circle class="st2" cx="80.9" cy="71.9" r="39.1"/>
	<ellipse class="st4" cx="54.8" cy="106.2" rx="47.4" ry="53.8"/>
	<circle class="st1" cx="34.5" cy="99.9" r="11.5"/>
	<circle class="st5" cx="34.3" cy="99.6" r="6.4"/>
	<path class="st3" d="M37.5,88.3c-0.2,0-0.4,0-0.6,0c-1,1.2-1.7,2.7-1.7,4.4c0,3.7,3,6.7,6.7,6.7c1.5,0,2.9-0.5,4-1.4
		c0.1-0.4,0.1-0.8,0.1-1.2C46,92.2,42.2,88.3,37.5,88.3z"/>
	<path class="st5" d="M34.8,86.9c5.6,0,10.3,3.1,11.7,7.2c0.3-0.8,0.4-1.6,0.4-2.5c0-5.4-5.4-9.7-12.1-9.7s-12.1,4.3-12.1,9.7
		c0,0.9,0.2,1.7,0.4,2.5C24.5,90,29.2,86.9,34.8,86.9z"/>
	<circle class="st1" cx="72.5" cy="99.9" r="11.5"/>
	<circle class="st5" cx="72.3" cy="99.6" r="6.4"/>
	<path class="st3" d="M74.7,88.3c-0.2,0-0.4,0-0.6,0c-1.1,1.3-1.8,3-1.8,4.8c0,4,3.2,7.2,7.2,7.2c1.7,0,3.2-0.6,4.4-1.5
		C84,98.4,84,98,84,97.5C84,92.5,79.9,88.3,74.7,88.3z"/>
	<path class="st5" d="M72.8,86.9c5.6,0,10.3,3.1,11.7,7.2c0.3-0.8,0.4-1.6,0.4-2.5c0-5.4-5.4-9.7-12.1-9.7s-12.1,4.3-12.1,9.7
		c0,0.9,0.2,1.7,0.4,2.5C62.5,90,67.2,86.9,72.8,86.9z"/>
	<circle class="st6" cx="46.8" cy="111" r="4.7"/>
	<circle class="st7" cx="80" cy="116.1" r="1.9"/>
	<circle class="st7" cx="86.9" cy="111.7" r="1.9"/>
	<circle class="st7" cx="88.9" cy="119.8" r="1.9"/>
	<path class="st6" d="M54.8,142.9c7.8,0,14.5-4,17.7-11H37C40.3,138.9,47,142.9,54.8,142.9z"/>
	<path class="st3" d="M35.3,126.9c0.3,2.2,0.9,4,2.2,6H72c1.3-2,2.6-5,2.4-6H35.3z"/>
	<path class="st8" d="M68.2,137.6c-1.6-2.3-4.8-3.9-8.5-3.9c-5.3,0-9.6,3.3-9.6,7.3c0,0.5,0.1,1,0.2,1.4c1.4,0.3,2.9,0.5,4.4,0.5
		C59.9,142.8,64.6,140.8,68.2,137.6z"/>
	<polygon class="st2" points="78.9,74.9 58,68.9 41.1,82.7 40.4,60.9 22.1,49.2 42.6,41.8 48.1,20.7 61.4,37.9 83.2,36.6 71,54.6 	
		"/>
	<polyline class="st2" points="24,58.3 27.2,46.1 35,56.1 47.6,55.3 40.5,65.8 41.1,82.7 33,74.1 12.5,81.9 17.3,72.8 	"/>
	<ellipse class="st4" cx="7.2" cy="99.4" rx="4.4" ry="9.5"/>
	<path class="st1" d="M92.2,72.8c-25-10.3-49.9-10.3-74.9,0C9.1,54.9,2.7,31.9,7.3,8.7c31.6-10.3,63.2-10.3,94.9,0
		C105.3,31.8,100.2,52.7,92.2,72.8z"/>
	<rect x="49.5" y="10.2" class="st3" width="10.3" height="35.9"/>
	<rect x="36.7" y="23" class="st3" width="35.9" height="10.3"/>
	<ellipse class="st4" cx="102.2" cy="99.4" rx="4.4" ry="9.5"/>
	<circle class="st7" cx="18.2" cy="123.6" r="1.9"/>
	<circle class="st7" cx="18.6" cy="115.4" r="1.9"/>
	<circle class="st7" cx="26.4" cy="118.5" r="1.9"/>
	<path class="st4" d="M39,207.6L39,207.6l-40.5-0.1c-3.3,0-6,2.7-6,6s2.7,6,6,6H38c0.2,0,0.4,0,0.7,0c3.3,0,6-2.7,6-6
		C44.7,210.4,42.2,207.8,39,207.6z"/>
	<path class="st4" d="M22.5,201.3c-3.3,0-6,2.7-6,6s2.7,6,6,6h20.1v-12.1H22.5z"/>
	<rect x="42.6" y="198.8" class="st0" width="64" height="22.4"/>
	<rect x="42.6" y="196.3" class="st3" width="12.1" height="27.1"/>
	<circle class="st9" cx="49.5" cy="219.7" r="3.2"/>
</g>
</svg>
