<?xml version="1.0" standalone="no"?>
<!DOCTYPE svg PUBLIC "-//W3C//DTD SVG 20010904//EN"
 "http://www.w3.org/TR/2001/REC-SVG-20010904/DTD/svg10.dtd">
<svg version="1.0" xmlns="http://www.w3.org/2000/svg"
 width="700.000000pt" height="700.000000pt" viewBox="0 0 700.000000 700.000000"
 preserveAspectRatio="xMidYMid meet">
<metadata>
Created by potrace 1.11, written by Peter Selinger 2001-2013
</metadata>
<g transform="translate(0.000000,700.000000) scale(0.100000,-0.100000)"
fill="#000000" stroke="none">
<path d="M4047 6844 c-1 -1 -36 -5 -77 -8 -92 -8 -177 -16 -210 -22 -14 -2
-49 -6 -78 -10 -140 -16 -584 -120 -693 -162 -19 -8 -28 -20 -33 -44 -25 -140
-33 -261 -30 -448 4 -208 2 -194 40 -430 33 -204 120 -496 215 -720 27 -63 49
-123 49 -132 0 -10 -25 -62 -55 -117 -59 -109 -111 -231 -139 -327 l-18 -61
-29 14 c-37 18 -63 10 -93 -30 -80 -106 -72 -379 14 -459 11 -10 23 -18 28
-18 20 0 30 -28 35 -100 14 -173 96 -459 161 -563 15 -24 32 -76 22 -66 -22
20 -213 -68 -291 -135 l-39 -33 -52 39 c-323 243 -790 134 -972 -227 -46 -91
-63 -160 -67 -266 -5 -147 41 -305 119 -404 17 -21 234 -242 482 -490 248
-247 454 -458 457 -467 7 -19 4 -20 -58 -20 -136 1 -221 -130 -160 -247 8 -17
35 -42 59 -56 38 -22 56 -26 129 -26 l85 0 6 -38 c21 -135 123 -378 193 -462
l38 -45 -1 -132 -1 -132 1311 2 1311 3 1 375 0 375 56 56 c62 61 103 140 142
272 51 172 69 314 70 552 0 195 -9 295 -39 445 -3 14 -8 38 -10 53 -10 50 -63
196 -92 249 -29 53 -96 128 -114 128 -6 0 -9 7 -6 14 4 10 -2 17 -16 21 -26 7
-119 42 -162 60 -16 7 -97 38 -180 70 -82 31 -169 66 -192 76 -24 10 -47 19
-53 19 -5 0 -10 4 -10 8 0 13 93 98 135 122 134 79 305 246 399 390 156 239
220 457 218 740 -1 80 -3 154 -5 165 -2 11 14 46 40 84 128 187 193 410 186
638 -3 95 -37 291 -54 308 -5 5 -9 16 -9 25 0 27 -98 213 -145 275 -62 82
-147 167 -227 226 -37 28 -65 55 -63 62 5 16 14 95 23 187 15 178 4 611 -16
632 -9 9 -226 72 -337 98 -250 58 -359 75 -650 106 -56 6 -542 13 -548 8z"/>
</g>
</svg>
